<svg width="641" height="623" viewBox="0 0 641 623" fill="none" xmlns="http://www.w3.org/2000/svg">
<circle cx="242.68" cy="97.8036" r="90.5523" fill="url(#paint0_radial_4_365)"/>
<g opacity="0.67" filter="url(#filter0_f_4_365)">
<path d="M434.523 109.985C495.168 164.717 637.486 222.754 582.754 283.399C528.022 344.044 215.187 517.283 84.9314 450.321C24.286 395.589 139.265 219.36 193.997 158.714C248.729 98.0687 373.877 55.2529 434.523 109.985Z" fill="url(#paint1_linear_4_365)" fill-opacity="0.3"/>
</g>
<g filter="url(#filter1_ii_4_365)">
<path fill-rule="evenodd" clip-rule="evenodd" d="M275.99 346.34H221.596C162.325 346.34 114.277 298.292 114.277 239.022C114.277 179.752 162.325 131.704 221.596 131.704H227.476C248.28 131.704 267.774 137.316 284.525 147.109C306.301 82.5969 367.313 36.1475 439.173 36.1475H447.259C532.916 36.1475 602.356 105.587 602.356 191.245C602.356 276.902 532.916 346.342 447.259 346.342H275.99V346.34Z" fill="white"/>
</g>
<defs>
<filter id="filter0_f_4_365" x="22.732" y="39.7944" width="617.309" height="470.669" filterUnits="userSpaceOnUse" color-interpolation-filters="sRGB">
<feFlood flood-opacity="0" result="BackgroundImageFix"/>
<feBlend mode="normal" in="SourceGraphic" in2="BackgroundImageFix" result="shape"/>
<feGaussianBlur stdDeviation="22.5" result="effect1_foregroundBlur_4_365"/>
</filter>
<filter id="filter1_ii_4_365" x="96.2772" y="21.1475" width="514.078" height="336.194" filterUnits="userSpaceOnUse" color-interpolation-filters="sRGB">
<feFlood flood-opacity="0" result="BackgroundImageFix"/>
<feBlend mode="normal" in="SourceGraphic" in2="BackgroundImageFix" result="shape"/>
<feColorMatrix in="SourceAlpha" type="matrix" values="0 0 0 0 0 0 0 0 0 0 0 0 0 0 0 0 0 0 127 0" result="hardAlpha"/>
<feOffset dx="8" dy="-15"/>
<feGaussianBlur stdDeviation="15"/>
<feComposite in2="hardAlpha" operator="arithmetic" k2="-1" k3="1"/>
<feColorMatrix type="matrix" values="0 0 0 0 0 0 0 0 0 0 0 0 0 0 0 0 0 0 0.2 0"/>
<feBlend mode="normal" in2="shape" result="effect1_innerShadow_4_365"/>
<feColorMatrix in="SourceAlpha" type="matrix" values="0 0 0 0 0 0 0 0 0 0 0 0 0 0 0 0 0 0 127 0" result="hardAlpha"/>
<feOffset dx="-18" dy="11"/>
<feGaussianBlur stdDeviation="15"/>
<feComposite in2="hardAlpha" operator="arithmetic" k2="-1" k3="1"/>
<feColorMatrix type="matrix" values="0 0 0 0 1 0 0 0 0 1 0 0 0 0 1 0 0 0 1 0"/>
<feBlend mode="normal" in2="effect1_innerShadow_4_365" result="effect2_innerShadow_4_365"/>
</filter>
<radialGradient id="paint0_radial_4_365" cx="0" cy="0" r="1" gradientUnits="userSpaceOnUse" gradientTransform="translate(278.709 48.4444) rotate(132.136) scale(188.675)">
<stop stop-color="#FFF72C"/>
<stop offset="1" stop-color="#DF7800"/>
</radialGradient>
<linearGradient id="paint1_linear_4_365" x1="149.337" y1="477.137" x2="501.601" y2="81.8047" gradientUnits="userSpaceOnUse">
<stop stop-color="#254659"/>
<stop offset="1" stop-color="#023553"/>
</linearGradient>
</defs>
</svg>
